<svg baseProfile="tiny" xmlns="http://www.w3.org/2000/svg" preserveAspectRatio="xMinYMin meet" viewBox="0 0 120 120" width="120" height="120"><g transform="translate(60)"><path fill="#fff" d="M14.74 16H.97c-.583 0-.97-.388-.97-.97s.387-.97.97-.97h13.77c.58 0 .97.388.97.97 0 .485-.39.97-.97.97zm-1.746-9.89c-.388-.39-.97-.39-1.358 0L8.824 8.823V.97c0-.583-.388-.97-.97-.97s-.97.387-.97.97v7.854L4.17 6.11c-.39-.39-.97-.39-1.36 0s-.387.97 0 1.357l4.462 4.46c.097.098.194.195.29.195s.195.097.39.097c.096 0 .29 0 .387-.1s.192-.096.29-.193l4.46-4.46c.29-.39.29-.97-.097-1.36z"/></g><g transform="translate(0 60)"><path fill="#fff" d="M7.952 0C3.588 0 0 3.588 0 7.952c0 4.46 3.588 7.952 7.952 7.952s7.952-3.588 7.952-7.952C16 3.588 12.414 0 7.952 0zm0 13.964c-3.297 0-6.012-2.715-6.012-6.012S4.655 1.94 7.952 1.94s6.012 2.715 6.012 6.012c0 3.394-2.618 6.012-6.012 6.012zm2.52-6.4L6.983 5.14c-.29-.29-.582-.097-.582.388v4.945c0 .485.29.68.582.388l3.49-2.422c.292-.194.292-.582 0-.873z"/></g></svg>