<svg baseProfile="tiny" xmlns="http://www.w3.org/2000/svg" preserveAspectRatio="xMinYMin meet" viewBox="0 0 480 60" width="480" height="60"><path fill="#fff" d="M12.697 14.062h-4.1V25H3.91V14.062H.008V9.37H3.91V6.05c.1-2.054.585-3.615 1.66-4.587C6.648.485 8.013 0 9.87 0c1.075 0 2.243.098 3.418.394v4.298h-2.343c-1.463 0-2.244.78-2.343 2.343V9.37h4.882l-.787 4.693z"/><g transform="translate(40)"><path fill="#fff" d="M17.04 0h-4.952c-1.34 0-2.48 0-3.303.105C6.725.21 5.07.825 3.73 1.858 1.87 3.506 1.25 5.364 1.766 7.633 2.284 9.798 3.73 11.14 6 11.655c.41.105.928.105 1.34.21s.824.104 1.034.104c-.517 1.032-.21 2.163.72 3.196-.72.105-1.447.21-2.27.21-2.06.208-3.716.718-4.952 1.647-1.236.922-1.858 2.06-1.858 3.19-.105.93.21 1.754.824 2.578s1.55 1.34 2.682 1.65c.824.306 1.858.516 3.198.516 1.236.105 2.374 0 3.303-.21s1.65-.41 2.376-.62c.72-.308 1.446-.72 2.165-1.237.72-.623 1.237-1.237 1.55-1.86.308-.62.518-1.34.518-1.96s-.21-1.34-.517-2.166c-.306-.824-1.235-1.648-2.48-2.577-.305-.21-.717-.517-1.234-.93-1.034-.928-.824-1.96.517-2.988.93-.72 1.446-1.34 1.753-1.86s.517-1.235.622-2.06c.307-1.752-.307-3.4-1.648-4.74.718.104 1.445 0 2.06-.413.104-.105.306-.21.41-.307.106-.104.308-.208.413-.306.105-.105.307-.21.412-.307.105-.105.307-.21.412-.307h.042-.044s-.105-.007-.307-.112zm-4.645 17.43c.412.307.72.622 1.13.93.825.718 1.132 1.55.93 2.576-.21.93-.72 1.648-1.753 2.06-.517.21-1.034.412-1.446.622-.517.21-1.236.307-2.165.307-1.75 0-3.196-.517-4.537-1.446-.622-.52-1.13-1.238-1.34-1.964 0-.412-.106-.622-.106-.72 0-1.235.824-2.164 2.374-2.785 1.65-.516 3.2-.72 4.743-.62.412 0 .824.21 1.13.41.42.217.734.427 1.042.63zM12.5 7.116v.307c0 1.648-.72 2.682-2.06 3.198-1.446.52-2.682.21-3.918-1.032-.622-.72-1.13-1.55-1.446-2.577-.307-1.033-.412-2.164-.105-3.302.107-.517.414-1.034.826-1.34 1.13-.93 2.374-1.035 3.918-.308.21.104.622.41 1.034.718.93.824 1.446 2.06 1.753 3.82v.517zm8.15 5.88v3.094h1.954v-3.094H25.6V11.04h-3.1v-3.1h-1.852v3.198h-2.996v1.858z"/></g><g transform="translate(100)"><title/><path d="M2.618 0C1.166 0 0 1.166 0 2.61v16.78C0 20.835 1.17 22 2.618 22h16.764C20.834 22 22 20.834 22 19.39V2.61C22 1.165 20.83 0 19.382 0H2.618zm13.196 3.436c0-.378.308-.686.686-.686h2.06c.382 0 .69.308.69.686V5.5c0 .378-.308.686-.69.686H16.5c-.378 0-.686-.308-.686-.686V3.436zm-4.788 3.366c2.337 0 4.23 1.892 4.23 4.224 0 2.332-1.89 4.22-4.23 4.22-2.336 0-4.23-1.892-4.23-4.22 0-2.332 1.892-4.224 4.228-4.224h.002zm8.91 12.448c0 .378-.308.69-.686.69H2.75c-.38 0-.69-.31-.69-.69V8.936h2.75c-.355.517-.476 1.48-.476 2.09 0 3.68 3 6.677 6.692 6.677 3.69 0 6.693-2.996 6.693-6.677 0-.61-.09-1.557-.53-2.09h2.75V19.25h-.005z" fill="#fff"/></g><g transform="translate(160)"><title>Untitled 2</title><desc>Created with Sketch.</desc><g fill="none" fill-rule="evenodd"><path d="M23 13.875V22h-4.715v-7.58c0-1.905-.682-3.205-2.39-3.205-1.302 0-2.077.876-2.42 1.723-.123.303-.155.725-.155 1.15V22H8.603s.064-12.84 0-14.17h4.717v2.01c-.01.014-.022.03-.03.045h.03V9.84c.626-.965 1.745-2.342 4.25-2.342 3.104 0 5.43 2.025 5.43 6.377zM3.67 1C2.054 1 1 2.057 1 3.448c0 1.36 1.025 2.45 2.606 2.45h.032c1.645 0 2.668-1.09 2.668-2.45C6.276 2.058 5.283 1 3.67 1zM1.28 22h4.715V7.83H1.28V22z" fill="#fff"/></g></g><g transform="translate(220)"><title>Untitled 3</title><desc>Created with Sketch.</desc><g fill="none" fill-rule="evenodd"><path d="M5.238 25.187c.09.36.09.626.09.626 0 .09 0 .09.09.18.09 0 .18 0 .18-.09s.182-.18.362-.535c1.162-1.523 1.885-2.956 2.24-4.21l.18-.716c.09-.27.182-.717.362-1.162.18-.536.36-1.162.536-2.06.27.447.717.898 1.343 1.253.628.36 1.435.536 2.423.536s1.885-.273 2.866-.72c1.884-.986 3.226-2.684 4.033-5.195.36-1.162.536-2.42.536-3.673 0-2.42-.898-4.48-2.6-6.093C16.17 1.806 14.02 1 11.336 1c-3.227 0-5.73.987-7.707 2.956-.896.897-1.522 1.885-1.968 2.866-.897 2.24-.897 4.39.09 6.455.446.987 1.252 1.704 2.24 2.15.36.18.626 0 .717-.36.09-.09.09-.272.18-.537s.09-.446.18-.717c.09-.18 0-.446-.27-.717-.627-.626-.898-1.523-.898-2.6 0-2.06.626-3.764 1.97-5.107 1.342-1.435 2.955-2.06 5.015-2.06 2.06 0 3.583.535 4.57 1.613.987 1.078 1.523 2.42 1.523 4.034 0 2.15-.445 3.944-1.25 5.467-.898 1.433-1.97 2.15-3.228 2.15-.807 0-1.433-.27-1.885-.807-.446-.536-.536-1.252-.36-2.06.18-.806.445-1.703.806-2.6.626-1.794.626-3.047 0-3.854-.36-.446-.807-.626-1.523-.626-.716 0-1.343.36-1.885 1.078-.536.717-.807 1.614-.807 2.6-.09.718.09 1.524.446 2.33-.807 3.138-1.252 5.107-1.433 6.004-.18.896-.36 1.522-.444 1.97-.09.444-.18.985-.18 1.612v1.704c-.085.434-.085.88.005 1.24z" fill="#fff"/></g></g><g transform="translate(280)"><path fill="#fff" d="M11.602 20.422c-1.45 0-2.34-.56-2.566-1.563-.112-.34-.112-.563-.112-.78v-7.256h5.356V6.36H8.924V0h-3.68c-.112 0-.224.113-.224.45s-.112.778-.337 1.34c-.45 1.338-1.227 2.565-2.34 3.68C1.668 6.03.89 6.47 0 6.807V10.6h2.79v7.594c0 1.676.674 3.24 1.9 4.69C6.03 24.334 7.82 25 10.27 25c.89 0 1.79-.223 2.68-.56s1.45-.673 1.675-1.002l-1.234-3.68c-.447.554-1.113.666-1.786.666z"/></g><g transform="translate(320)"><title>group</title><desc>Created with Sketch.</desc><g fill="none" fill-rule="evenodd"><g transform="translate(-3 -3)"><path d="M0 0h29v25H0z"/><path d="M5.34 4.263c-.46.647-.648 1.48-.648 2.313 0 1.665.647 2.96 1.946 3.884-.647 0-1.293-.186-2.033-.553 0 1.2.373 2.126 1.02 2.96.647.832 1.48 1.385 2.5 1.572l-.555.09H6.178c.28.927.833 1.76 1.572 2.313.74.554 1.573.927 2.5.927-1.573 1.294-3.426 1.946-5.46 1.946h-.46c-.186 0-.372 0-.553-.093.74.554 1.76 1.02 3.053 1.48 1.2.46 2.685.646 4.257.646 1.573 0 3.146-.375 4.72-1.2 1.57-.74 2.865-1.854 3.977-3.147C21.91 14.81 22.93 11.85 22.93 8.52v-.646c1.02-.74 1.757-1.572 2.31-2.406-.832.373-1.76.647-2.59.74 1.02-.553 1.664-1.386 1.944-2.592-.647.46-1.572.834-2.866 1.113-.834-.928-1.853-1.48-3.146-1.48-1.294 0-2.313.46-3.146 1.292-.833.926-1.293 1.945-1.293 3.24.075.645.075 1.018.168 1.29-3.695-.185-6.75-1.85-8.973-4.81z" fill="#fff"/></g></g></g><g transform="translate(380)"><path fill="#fff" d="M23.003 12.01c-.215-.107-.43-.107-.53-.215-.107-.107-.107-.322.107-.852.43-1.174.43-2.133-.107-2.77-.53-.744-1.38-1.066-2.555-1.066-1.28 0-2.662.322-4.26.96-.214.214-.32.32-.428.32-.215 0-.322-.214-.215-.53.53-1.595.43-2.77-.322-3.513-.43-.43-1.066-.637-1.703-.637-1.49 0-3.3.637-5.325 2.025-1.066.637-2.133 1.596-3.3 2.77-1.173 1.174-2.24 2.555-2.984 3.944C.424 14.15 0 15.538 0 16.812c0 1.28.322 2.448 1.066 3.514 1.49 2.025 3.836 3.407 7.028 4.15 1.596.323 3.192.53 5.11.53s3.622-.32 5.325-.85c1.7-.53 3.19-1.282 4.364-2.134s2.133-1.81 2.877-2.77c.638-1.066.96-1.918.96-2.77 0-2.24-1.28-3.73-3.73-4.473zm-3.73 8.84c-1.81 1.28-3.943 2.132-6.39 2.34-2.555.214-4.795-.108-6.713-1.175s-2.985-2.34-3.092-3.944c-.215-1.594.637-3.09 2.24-4.47 1.703-1.38 3.836-2.24 6.39-2.45s4.796.108 6.714 1.175c1.918.96 2.877 2.34 3.092 3.944.215 1.702-.637 3.19-2.24 4.58zm-3.083-5.22c-.53-1.065-1.38-1.702-2.662-2.024s-2.448-.215-3.73.322c-1.173.53-2.024 1.38-2.554 2.448s-.53 2.133-.107 3.192c.43 1.066 1.28 1.703 2.555 2.133s2.555.324 3.836-.213c1.28-.53 2.133-1.38 2.662-2.555s.53-2.24 0-3.298zm-4.688 3.515c-.215.43-.53.637-1.066.852-.43.107-.852.107-1.28 0-.43-.215-.638-.43-.745-.852s0-.744.217-1.174c.215-.427.53-.635.96-.85.53-.107.958-.107 1.38 0 .43.107.637.43.744.85.116.424.008.854-.207 1.176zm1.703-2.025c-.107.107-.215.215-.43.322s-.32.107-.428 0c-.322-.107-.43-.43-.215-.744.215-.322.458-.508.852-.322.53.25.544.58.222.744zm16.825-6.39c.43-1.382.43-2.77.216-4.152-.322-1.38-.852-2.662-1.918-3.836-.96-1.174-2.133-1.918-3.514-2.34-1.38-.43-2.662-.53-4.05-.215-.323.107-.53.215-.745.53s-.217.53-.217.852c.107.32.215.53.53.742.322.215.53.215.852.215.96-.215 1.918-.215 2.877.107s1.81.852 2.448 1.703c.745.744 1.175 1.703 1.382 2.662.215 1.065.215 1.81 0 2.447-.322 1.066-.107 1.703.637 1.918.32.107.53.107.85-.107.444.106.544-.21.65-.53zm-3.72-1.175c.53-1.38.215-2.662-.744-3.73s-2.24-1.488-3.836-1.28c-.215.107-.43.215-.637.43s-.215.428-.215.743c.107.322.215.43.43.637.214.107.53.215.743.107.746-.107 1.383.107 1.92.637.53.53.637 1.172.43 1.916-.108.215-.108.43.106.744.215.323.322.43.637.53.322.108.53.108.744 0 .1-.307.315-.52.422-.736z"/></g><g transform="translate(440)"><path fill="#fff" d="M5.234 9.39h1.352V5.597L8.21 0H6.86l-.996 3.7L4.96 0H3.608l.45 1.262c.09.182.09.45.18.63s.183.54.274.905c.09.364.273.813.45 1.534.18.633.272 1.088.363 1.264v3.79h-.09zm6.684-2.258V4.694c0-.722-.09-1.262-.364-1.625-.364-.45-.813-.724-1.443-.724s-1.084.273-1.44.722c-.274.363-.365.903-.365 1.624V7.13c0 .722.09 1.262.364 1.625.363.45.903.722 1.533.722s1.086-.274 1.352-.723c.273-.364.45-.904.364-1.625zM10.65 7.4c0 .63-.182.994-.63.994s-.632-.364-.632-.995V4.42c0-.63.182-.994.63-.994s.632.364.632.995V7.4zm4.694 1.99h1.262V2.437h-1.262v5.325c-.273.45-.54.63-.722.63s-.364-.09-.364-.272c0 0 0-.18-.09-.448V2.438h-1.172v5.865c0 .273.09.54.182.813s.364.45.813.45c.45 0 .906-.274 1.354-.814v.637zm3.79 2.073c-.45-.364-.903-.63-1.442-.63-1.983-.183-3.79-.274-5.234-.274h-3.7c-2.438 0-4.512.09-6.138.27-.54 0-.995.274-1.352.63-.45.45-.722.815-.813 1.264-.273.45-.273.813-.364 1.262C0 14.89 0 15.703 0 16.426v2.53c0 1.532.09 2.62.273 3.43.273 1.353 1.086 2.166 2.438 2.348 1.536.182 3.16.273 4.878.273h4.064c2.44 0 4.422-.09 6.14-.273 1.26-.182 1.982-.904 2.255-2.256.09-.904.182-2.074.182-3.518v-3.972c-.007-1.63-.37-2.893-1.093-3.524zm-14.98 2.705v7.945h-1.26v-7.945H1.36v-1.262h4.33v1.262H4.154zM9.3 22.113h-1.17v-.722c-.45.54-.996.906-1.353.906-.364 0-.722-.182-.813-.54-.09-.182-.09-.45-.09-.995v-5.506h1.17v5.598c0 .183.182.365.364.365s.45-.182.722-.63V15.26h1.17v6.853zm4.785-2.074c0 .63-.09 1.084-.182 1.44-.18.54-.447.814-.902.814-.45 0-.904-.273-1.352-.722v.63h-1.17v-9.297h1.17v3.07c.45-.54.904-.723 1.352-.723s.813.273.904.813c.092.273.183.722.183 1.352v2.62zm4.694-1.088H16.34v1.17c0 .632.18.996.63.996.273 0 .45-.183.54-.54v-.814h1.17v.995c-.09.364-.18.54-.272.722-.364.54-.813.722-1.443.722s-1.086-.182-1.443-.63c-.273-.45-.45-.996-.45-1.717V17.42c0-1.534.632-2.347 1.9-2.347.63 0 1.085.273 1.442.722.273.364.364.904.364 1.625v1.534zm-1.897-2.704c-.45 0-.632.364-.632.995v.63h1.262v-.63c0-.637-.182-.995-.63-.995zm-4.604 0c-.273 0-.45.09-.63.364v4.24c.18.18.363.272.63.272.364 0 .63-.364.63-.995v-2.89c0-.637-.18-.995-.63-.995z"/></g></svg>