<svg width="94px" height="42px" viewBox="0 0 94 42" version="1.1" xmlns="http://www.w3.org/2000/svg" xmlns:xlink="http://www.w3.org/1999/xlink">
    <defs>
        <linearGradient x1="50%" y1="0%" x2="50%" y2="100%" id="linearGradient-1">
            <stop stop-color="#74B44A" offset="0%"></stop>
            <stop stop-color="#5A9A2E" offset="100%"></stop>
        </linearGradient>
    </defs>
    <g id="Page-1" stroke="none" stroke-width="1" fill="none" fill-rule="evenodd">
        <g id="badge">
            <path d="M1.04109648,24.9951706 C-0.0331174967,23.0648412 -0.0305991914,19.9306335 1.04109655,18.0048294 L9.25768032,3.23988193 C9.79241975,2.27897167 11.1298668,1.5 12.2163158,1.5 L90.2329529,1.5 C91.8916999,1.5 93.2363801,2.84230941 93.2363801,4.5065012 L93.2363801,38.4934988 C93.2363801,40.1539436 91.8988618,41.5 90.2329529,41.5 L12.2163154,41.5 C11.1170456,41.5 9.78960799,40.7159763 9.25767999,39.7601181 L1.04109648,24.9951706 Z" id="border" fill="#4C8328"></path>
            <path d="M1.04109648,23.9951706 C-0.0331174967,22.0648412 -0.0305991914,18.9306335 1.04109655,17.0048294 L9.25768032,2.23988193 C9.79241975,1.27897167 11.1298668,0.5 12.2163158,0.5 L90.2329529,0.5 C91.8916999,0.5 93.2363801,1.84230941 93.2363801,3.5065012 L93.2363801,37.4934988 C93.2363801,39.1539436 91.8988618,40.5 90.2329529,40.5 L12.2163154,40.5 C11.1170456,40.5 9.78960799,39.7159763 9.25767999,38.7601181 L1.04109648,23.9951706 Z" id="box" fill="url(#linearGradient-1)"></path>
        </g>
    </g>
</svg>